<?xml version="1.0" encoding="UTF-8" standalone="no"?>
<!-- Created with Inkscape (http://www.inkscape.org/) -->

<svg
   xmlns:dc="http://purl.org/dc/elements/1.1/"
   xmlns:cc="http://creativecommons.org/ns#"
   xmlns:rdf="http://www.w3.org/1999/02/22-rdf-syntax-ns#"
   xmlns:svg="http://www.w3.org/2000/svg"
   xmlns="http://www.w3.org/2000/svg"
   xmlns:sodipodi="http://sodipodi.sourceforge.net/DTD/sodipodi-0.dtd"
   xmlns:inkscape="http://www.inkscape.org/namespaces/inkscape"
   sodipodi:docname="drawing.svg"
   inkscape:version="0.91 r13725"
   version="1.1"
   id="svg2"
   viewBox="0 0 1280 720.00001"
   height="720"
   width="1280">
  <defs
     id="defs4" />
  <sodipodi:namedview
     inkscape:window-maximized="1"
     inkscape:window-y="0"
     inkscape:window-x="0"
     inkscape:window-height="799"
     inkscape:window-width="1440"
     units="px"
     showgrid="false"
     inkscape:current-layer="layer1"
     inkscape:document-units="px"
     inkscape:cy="727.25006"
     inkscape:cx="452.53503"
     inkscape:zoom="0.35"
     inkscape:pageshadow="2"
     inkscape:pageopacity="0.0"
     borderopacity="1.0"
     bordercolor="#666666"
     pagecolor="#ffffff"
     id="base" />
  <metadata
     id="metadata7">
    <rdf:RDF>
      <cc:Work
         rdf:about="">
        <dc:format>image/svg+xml</dc:format>
        <dc:type
           rdf:resource="http://purl.org/dc/dcmitype/StillImage" />
        <dc:title></dc:title>
      </cc:Work>
    </rdf:RDF>
  </metadata>
  <g
     inkscape:label="Layer 1"
     inkscape:groupmode="layer"
     id="layer1"
     transform="translate(0,-332.36216)">
    <path
       style="fill:#000000"
       d="m -61.081779,1654.9686 c -17.70821,-3.0843 -25.81562,-3.4219 -29.46143,-1.2265 -4.03512,2.4297 -5.07233,2.0424 -5.24402,-1.9585 -0.11755,-2.743 -1.8548,-22.8548 -3.86022,-44.6929 -2.005391,-21.8381 -3.126191,-40.6629 -2.490631,-41.8328 2.739201,-5.0422 5.827361,-1.1495 10.370741,13.0724 6.98892,21.877 18.93865,36.6433 36.73525,45.394 33.70724,16.574 65.80746,4.2433 65.80746,-25.2786 0,-15.8043 -6.1595104,-20.6827 -44.2717,-35.0645 -37.07677,-13.9911 -45.90152,-19.6763 -53.57281,-34.5136 -22.542511,-43.6003 5.27075,-92.8164 59.19091,-104.7398 10.71123,-2.3685 18.9449096,-1.9832 39.00746,1.8257 19.54771,3.7112 27.05711,4.0966 32.46291,1.6663 6.4042,-2.8792 7.1688,-2.478 8.556,4.489 0.8378,4.2079 2.3858,20.7323 3.4398,36.721 2.193,33.2634 -0.457,36.8897 -11.3992,15.5986 -3.8079,-7.4093 -9.3741,-15.6563 -12.3693,-18.3266 -8.41086,-7.4984 -25.4233004,-13.5797 -37.9888504,-13.5797 -14.3057796,0 -23.2952196,9.8279 -23.2952196,25.468 0,15.5955 5.5593,19.3362 56.91027,38.2931 36.6188,13.5184 49.25931,29.9073 49.37521,64.0165 0.1981,58.3483 -56.21967,88.8964 -137.90263,74.6689 z"
       id="path3433"
       inkscape:connector-curvature="0" />
    <path
       style="fill:#000000"
       d="m -822.76754,1649.8025 c 0,-2.3235 2.53026,-5.5608 5.62282,-7.1939 3.09253,-1.6331 6.9656,-7.7402 8.60682,-13.5714 3.76261,-13.3684 4.02992,-170.6786 0.30643,-180.342 -1.49029,-3.8677 -5.37058,-7.8656 -8.62286,-8.8841 -3.25225,-1.0185 -5.91321,-3.6803 -5.91321,-5.915 0,-3.3625 8.1772,-4.063 47.42572,-4.063 39.24851,0 47.42571,0.7005 47.42571,4.063 0,2.2347 -2.39057,4.8118 -5.31237,5.7268 -7.81173,2.4464 -11.93334,13.8046 -11.93334,32.8854 l 0,16.8833 28.74286,0 28.74286,0 0,-16.8321 c 0,-20.3456 -3.43621,-30.2755 -11.33251,-32.7484 -3.25225,-1.0185 -5.91321,-3.6803 -5.91321,-5.915 0,-3.3625 8.1772,-4.063 47.42572,-4.063 39.24852,0 47.42572,0.7005 47.42572,4.063 0,2.2347 -2.39058,4.8118 -5.31237,5.7268 -10.81997,3.3885 -11.93335,12.9225 -11.93335,102.1858 0,47.401 1.19421,89.2829 2.65377,93.0709 1.45956,3.788 5.47612,7.6155 8.92566,8.5056 3.49861,0.9027 5.71572,3.2688 5.01402,5.3509 -0.95595,2.8366 -12.41185,3.9195 -47.72852,4.5118 -50.0823,0.8398 -53.90444,-0.3943 -38.56636,-12.4525 l 7.90428,-6.2141 0.87698,-61.2503 0.87697,-61.2504 -28.90126,0 -28.90126,0 0,59.3266 c 0,32.6296 0.82311,61.4431 1.82914,64.03 1.00605,2.5868 4.99145,5.8897 8.8565,7.3397 3.86503,1.45 6.49241,4.2238 5.83863,6.164 -0.86763,2.5749 -13.7405,3.7382 -47.65934,4.307 -39.60016,0.6641 -46.47065,0.1547 -46.47065,-3.4454 z"
       id="path3431"
       inkscape:connector-curvature="0" />
    <path
       style="fill:#000000"
       d="m 1508.2218,704.79462 c -1.1637,-1.8578 -0.5207,-3.9024 1.4287,-4.5436 1.9495,-0.6412 6.0588,-3.8287 9.1318,-7.0834 5.2979,-5.6112 5.5873,-10.7323 5.5873,-98.8899 l 0,-92.9724 -8.6229,-6.2905 c -4.7425,-3.4598 -8.6228,-7.3267 -8.6228,-8.5933 0,-1.2665 21.9883,-2.3027 48.8629,-2.3027 26.8745,0 48.8628,0.992 48.8628,2.2046 0,1.2125 -3.8803,5.5642 -8.6228,9.6705 l -8.6229,7.4659 0,92.5653 0,92.5653 7.1857,6.571 c 3.9522,3.6141 7.1857,8.0201 7.1857,9.791 0,4.6567 -90.8338,4.5037 -93.7535,-0.1579 z"
       id="path3429"
       inkscape:connector-curvature="0" />
    <path
       style="fill:#000000;stroke:#ff0000;stroke-width:0.22754905;stroke-miterlimit:9.80000019;stroke-dasharray:none;stroke-opacity:1"
       d="m -389.99225,2286.7775 c -1.32708,-2.1187 2.11825,-7.4018 7.68069,-11.7776 l 10.08726,-7.9354 0,-114.7814 0,-114.7817 -7.88756,-6.3034 c -15.83249,-12.653 -10.63697,-13.8423 60.47134,-13.8423 69.74084,0 74.8171,1.0397 62.82835,12.8694 -7.75355,7.6505 -5.38764,13.4093 21.83057,53.1363 l 24.01423,35.0505 1.02486,-34.0976 c 1.238,-41.1904 -0.39546,-48.7408 -11.63833,-53.7953 -4.76696,-2.1432 -8.66723,-5.9817 -8.66723,-8.53 0,-3.5776 8.38731,-4.6333 36.80863,-4.6333 29.61221,0 36.80865,0.9688 36.80865,4.9554 0,2.7255 -3.02317,5.9023 -6.71816,7.0595 -12.56182,3.9339 -14.31536,19.7276 -14.31536,128.934 l 0,105.3263 10.78362,9.9396 c 5.93098,5.4669 9.78165,11.5393 8.5571,13.4944 -3.18464,5.0844 -71.92448,4.7285 -71.92448,-0.3723 0,-2.1599 3.94378,-7.5336 8.76394,-11.9415 10.61615,-9.7081 11.55452,-25.7437 2.52031,-43.0683 -5.1777,-9.9292 -106.94759,-149.5541 -117.12567,-160.6927 -1.85905,-2.0345 -2.7215,38.069 -2.11104,98.1643 1.02595,101.0001 1.07896,101.6348 8.91965,106.7681 4.33816,2.8401 7.88758,7.309 7.88758,9.9306 0,6.0969 -64.81208,6.9703 -68.59895,0.9244 z"
       id="path3427"
       inkscape:connector-curvature="0" />
    <path
       style="fill:#000000"
       d="M 471.00822,110.86172 C 255.81035,75.598744 52.013812,-79.02404 -48.026013,-282.93448 -86.2834,-360.91471 -90.405,-408.0384 -90.405,-767.46988 l 0,-398.15512 59.1982,-90.8285 c 80.509487,-123.5271 136.78921,-170.6731 282.08811,-236.31 164.3242,-74.2314 377.12773,-87.2102 631.27211,-38.5024 168.22278,32.2411 191.22688,32.6791 234.85408,4.4727 l 48.3648,-31.2686 24.3237,230.2518 c 28.879,273.3681 30.2075,338.0577 6.9425,338.0577 -9.5599,0 -28.825,-25.2824 -42.8112,-56.1829 -89.4344,-197.5937 -253.34292,-311.5615 -448.08697,-311.5615 -131.16717,0 -227.37927,57.6308 -293.49975,175.8049 -204.00653,364.61156 -100.35753,972.14024 189.47314,1110.581608 113.17689,54.060737 162.37829,52.440646 233.28272,-7.678298 58.07377,-49.24082 58.09598,-49.36114 64.82742,-349.1145 5.87345,-261.54704 2.1567,-304.84777 -29.09047,-338.91713 -19.7033,-21.48325 -48.35606,-39.06001 -63.67288,-39.06001 -15.31671,0 -27.84874,-13.79052 -27.84874,-30.64549 0,-25.96314 50.6125,-30.64546 331.28263,-30.64546 188.6469,0 331.2825,8.11988 331.2825,18.85898 0,10.37243 -27.9519,46.43933 -62.1155,80.14923 l -62.1155,61.29098 0,349.86081 0,349.861525 53.6409,49.052085 c 29.5026,26.978865 47.5873,58.71786 40.1885,70.53029 -16.5655,26.44797 -777.13775,25.17725 -940.36708,-1.5711 z"
       id="path3425"
       inkscape:connector-curvature="0"
       inkscape:label="#heyheybigG" />
    <path
       style="fill:#000000"
       d="m -963.60755,1646.7905 c 0,-2.4135 2.96336,-5.5 6.58528,-6.8588 14.84482,-5.569 14.90998,-5.9917 15.83981,-102.7565 l 0.86795,-90.325 -7.80113,0 c -14.92412,0 -32.0344,12.9678 -41.4854,31.4415 -4.78034,9.3441 -9.88493,16.2615 -11.34346,15.372 -1.4586,-0.8894 -2.1584,-3.1716 -1.5552,-5.0715 0.6032,-1.8999 3.8582,-18.7694 7.23336,-37.4878 l 6.13663,-34.0335 78.58197,0 78.582,0 4.69279,31.1974 c 2.58102,17.1585 5.40009,34.707 6.26459,38.9966 0.95446,4.7359 0.32525,7.7994 -1.60196,7.7994 -1.74558,0 -4.50748,-3.5097 -6.13757,-7.7994 -7.95088,-20.9231 -24.1582,-36.5676 -41.99562,-40.5372 l -9.50975,-2.1163 0,89.18 c 0,96.3012 1.15659,104.4753 15.0583,106.4227 3.57435,0.5007 6.49885,2.8248 6.49885,5.1646 0,3.5978 -8.09278,4.3734 -52.45572,5.0272 -45.76148,0.6743 -52.45572,0.213 -52.45572,-3.6154 z"
       id="path3423"
       inkscape:connector-curvature="0" />
    <path
       style="fill:#000000"
       d="m -1253.9104,1476.5977 0,-9.9583 117.1271,0.7409 117.1272,0.7408 0.9007,9.2174 0.9007,9.2174 -118.0279,0 -118.0278,0 0,-9.9582 z"
       id="path3421"
       inkscape:connector-curvature="0" />
    <path
       style="fill:#000000"
       d="m 68.261041,1476.6295 0,-9.9265 136.528609,0 136.5286,0 0,9.9265 0,9.9264 -136.5286,0 -136.528609,0 0,-9.9264 z"
       id="path3419"
       inkscape:connector-curvature="0" />
    <path
       style="fill:#000000"
       d="m 315.25965,2742.459 c -19.29854,-3.8551 -153.25386,-22.537 -297.67916,-41.5162 -247.71602,-32.5522 -266.05016,-32.5474 -323.66989,0.078 -33.59361,19.0284 -64.51213,31.5942 -68.70828,27.925 -5.5992,-4.896 28.67314,-418.4831 57.94527,-699.2517 0.29298,-2.7806 19.00149,-5.0552 41.58224,-5.0552 28.61454,0 57.83214,37.4028 96.4227,123.4355 105.347267,234.8554 271.880511,342.21 552.58706,356.2218 279.44921,13.9495 432.75269,-96.6912 432.75269,-312.3223 0,-160.7319 -55.6869,-200.3935 -432.99603,-308.3962 C 2.0345404,1777.2495 -70.458893,1746.2533 -179.34146,1647.2023 -325.03718,1514.6621 -374.26299,1409.7587 -372.29513,1236.0068 -369.18871,961.73647 -230.81264,754.77114 18.33002,651.76225 262.46109,550.82533 610.75283,550.64351 947.14217,651.27741 c 132.08923,39.51618 145.73483,40.18569 199.40343,9.78725 71.541,-40.52151 71.4557,-42.76172 9.2533,242.92578 L 1107.0116,1128.0626 962.60017,1003.4922 C 788.21098,853.06374 650.613,799.68129 490.69382,820.41225 282.85506,847.35484 152.44891,1010.6144 222.30958,1156.4113 c 35.86583,74.8507 79.38584,94.8516 485.6432,223.1902 487.87072,154.1211 587.74312,218.0467 669.23922,428.3638 144.5019,372.9172 -118.3915,783.4034 -570.69972,891.1009 -128.21449,30.5289 -424.55732,56.6989 -491.23263,43.3807 z"
       id="path3417"
       inkscape:connector-curvature="0"
       inkscape:label="#payattentiontoS" />
    <path
       style="fill:#000000"
       d="m 752.27703,1320.3936 c -132.76999,-0.1218 -141.89647,2.5075 -141.89647,11.782 0,7.1642 9.19397,16.2241 20.43224,20.1302 40.82154,14.1881 44.09609,42.3495 41.2471,354.7492 l -2.65353,290.717 -34.05171,23.3163 c -18.73056,12.8232 -34.05785,27.0186 -34.05785,31.5453 0,5.9166 53.61675,8.2294 190.70922,8.2294 164.66092,0 190.71538,-1.4937 190.71538,-10.9444 0,-6.0201 -10.01887,-14.5654 -22.26503,-18.9857 C 918.2813,2015.7097 910.07,1987.1277 910.07,1855.5276 c 0,-106.2537 1.86796,-121.5495 15.89041,-129.9821 8.7409,-5.2566 18.56781,-9.6583 21.83921,-9.7851 11.38135,-0.4377 92.06548,116.2715 132.05988,191.0269 43.8452,81.9527 47.112,110.1371 14.1069,121.6088 -11.2385,3.9058 -20.4322,12.8077 -20.4322,19.7834 0,11.7297 15.0128,12.6835 199.7929,12.6835 109.8862,0 199.727,-2.4276 199.6511,-5.3954 -0.2759,-10.7067 -13.8578,-21.5349 -32.9225,-26.244 -21.2221,-5.2423 -41.1129,-37.42 -86.0671,-139.2571 -27.6996,-62.7495 -84.1059,-151.5984 -141.4337,-222.7755 l -30.2379,-37.5454 26.0725,-10.6819 c 42.1198,-17.255 105.0249,-70.0485 127.7216,-107.1914 16.9071,-27.6659 20.285,-42.9088 17.1431,-77.3204 -4.4224,-48.4347 -23.4747,-74.0814 -71.7937,-96.6283 -29.0022,-13.5334 -49.8725,-14.5189 -350.95822,-16.533 -75.97433,-0.5084 -133.9686,-0.8559 -178.22525,-0.897 z m 245.13145,82.1808 c 45.41232,0 52.98042,2.311 76.87242,23.4943 60.5599,53.6948 15.9144,145.851 -95.08933,196.2886 -25.53178,11.6011 -51.82369,21.1254 -58.42717,21.1609 -9.5517,0.053 -11.40459,-21.9415 -9.07761,-107.6123 3.49069,-128.5193 6.58065,-133.3315 85.72169,-133.3315 z"
       id="path3415"
       inkscape:connector-curvature="0"
       inkscape:label="#yobigr" />
    <path
       style="fill:#000000"
       d="m -27.931889,1373.7858 c -47.41336,-0.4711 -78.640401,-1.8854 -80.421001,-3.6423 -1.96494,-1.9389 -0.1279,-5.0609 5.65298,-9.6074 l 8.563851,-6.7352 0.82632,-96.4102 0.82636,-96.4102 -7.2935,-5.6609 c -4.011411,-3.1135 -7.293471,-6.9799 -7.293471,-8.592 0,-1.9234 26.929211,-3.2457 78.324291,-3.846 43.07836,-0.5032 78.7967,-0.6614 79.3741,-0.3517 2.0655,1.1081 14.5078,72.7002 13.0418,75.0408 -3.0826,4.9215 -6.0992,2.0493 -9.4549,-9.0021 -7.3117,-24.0803 -32.32235,-42.3116 -58.2111604,-42.4326 -20.8539196,-0.097 -26.4185096,6.0587 -27.8349796,30.7938 l -1.15641,20.1941 16.93052,0 c 20.4254496,0 28.76513,-4.9258 31.34903,-18.5163 1.02948,-5.4146 3.02125,-9.8449 4.42617,-9.8449 1.40492,0 2.57119,0.9572 2.59168,2.1271 0.0201,1.1699 2.5906,18.0803 5.71125,37.5786 8.4253,52.6413 7.1176,59.6413 -6.41381,34.3323 -8.44031,-15.7868 -21.97799043,-23.4357 -39.57472,-22.3603 l -12.93428,0.7906 0,44.2536 c 0,47.7463 1.98377,56.0157 14.82246,61.7877 25.0506096,11.2623 65.75275,-11.64 83.19145,-46.8101 4.25051,-8.5724 8.82141,-14.5074 10.15771,-13.1889 2.9962,2.9564 -20.92431,86.718 -24.85851,87.0462 -1.5582,0.1299 -37.71265,-0.1104 -80.34323,-0.5337 z"
       id="path3411"
       inkscape:connector-curvature="0" />
    <path
       style="fill:#000000"
       d="m -1023.9675,1368.8503 c 0,-2.4136 2.9633,-5.5001 6.5852,-6.8589 14.8502,-5.571 14.9098,-5.9594 15.8419,-103.1519 l 0.8699,-90.7203 -10.7089,1.7148 c -14.614,2.34 -29.833,15.2131 -38.4567,32.5289 -3.9522,7.9356 -8.1558,14.5032 -9.3414,14.5947 -3.2451,0.2504 -2.658,-6.6741 3.5928,-42.3755 3.1408,-17.9384 5.719,-33.6175 5.7295,-34.8422 0.012,-1.2248 2.6046,-0.8616 5.7647,0.8072 6.6802,3.5277 139.54547,2.7696 146.85326,-0.8379 3.93053,-1.9403 5.45258,3.0415 10.83134,35.4515 7.16919,43.1984 7.07158,41.9632 3.31693,41.9632 -1.55965,0 -4.85878,-4.7859 -7.33138,-10.6354 -5.67922,-13.4353 -20.14084,-28.5838 -32.1363,-33.6626 -19.11426,-8.0928 -18.05661,-13.0594 -18.05661,84.7907 0,96.419 0.2993,98.3313 16.33227,104.346 3.9211,1.471 6.59413,4.2621 5.94005,6.2023 -0.877,2.6015 -14.89949,3.7306 -53.40791,4.3007 -45.54755,0.6743 -52.21865,0.2124 -52.21865,-3.6153 z"
       id="path3409"
       inkscape:connector-curvature="0" />
    <path
       style="fill:#000000"
       d="m -884.61387,1370.196 c -1.00404,-1.603 2.20303,-6.6279 7.12688,-11.1664 l 8.95248,-8.2518 -0.82937,-95.4416 c -0.82633,-95.0897 -0.8532,-95.4605 -7.29652,-100.6059 -13.38926,-10.6922 -9.32263,-11.3516 68.98286,-11.1854 84.00152,0.1781 91.61295,1.4152 101.93761,16.567 13.12638,19.2634 5.858,44.0793 -19.49927,66.575 l -15.43845,13.6962 6.40839,10.3503 c 12.49292,20.1778 31.482,58.7807 36.48148,74.1632 6.37074,19.6017 9.06299,22.545 12.71716,13.903 6.72022,-15.893 57.75452,-173.5375 57.75452,-178.4032 0,-2.9328 -1.29343,-6.1211 -2.87429,-7.0852 -1.58085,-0.964 -2.87428,-3.5919 -2.87428,-5.8396 0,-3.3767 7.49145,-4.0868 43.11429,-4.0868 27.80357,0 43.1143,1.0426 43.1143,2.9359 0,1.6147 -1.79658,5.7626 -3.99241,9.2174 -3.59585,5.6575 -1.29881,15.7191 23.12457,101.2916 14.91433,52.2555 28.94533,96.8264 31.18,99.0464 8.33163,8.2769 10.04784,-9.1795 10.04784,-102.2026 l 0,-90.7067 -7.18571,-6.5711 c -13.46931,-12.3172 -10.86388,-13.0109 48.86286,-13.0109 45.69059,0 56.04857,0.722 56.04857,3.9069 0,2.1488 -1.94014,5.4957 -4.31143,7.4376 -2.37128,1.9418 -4.31143,5.1569 -4.31143,7.1446 0,1.9876 9.68244,18.1036 21.51651,35.8133 l 21.51649,32.1993 0.0405,-30.3549 c 0.0425,-31.8282 -2.96762,-43.5619 -11.8927,-46.357 -2.92168,-0.915 -5.31225,-3.4921 -5.31225,-5.7268 0,-3.2686 5.90047,-4.063 30.17999,-4.063 24.27952,0 30.18,0.7944 30.18,4.063 0,2.2347 -2.39057,4.8118 -5.31237,5.7268 -10.889,3.4101 -11.93334,12.7527 -11.93334,106.7535 l 0,90.7514 7.18571,7.0903 c 13.35175,13.1745 10.30753,15.3408 -21.55714,15.3408 -26.82665,0 -28.74285,-0.3781 -28.74285,-5.6722 0,-3.1197 1.89464,-5.6722 4.21031,-5.6722 9.8255,0 13.02637,-18.9409 6.00355,-35.5256 -3.96051,-9.353 -95.31299,-137.4779 -98.02111,-137.4779 -0.7126,0 -1.29562,36.4313 -1.29562,80.9584 l 0,80.9584 7.18572,7.0903 c 15.12035,14.9196 13.42812,15.3408 -61.62751,15.3408 -47.35039,0 -69.4287,-0.9825 -70.78646,-3.1503 -1.08524,-1.7326 1.58129,-5.9469 5.92563,-9.3649 24.19739,-19.0382 -9.1527,-72.1725 -46.12467,-73.4874 l -14.03439,-0.4991 -7.80294,26.9432 c -9.86929,34.0781 -9.91531,38.3959 -0.50084,47.005 5.09533,4.6596 6.72252,7.9792 4.82762,9.8489 -4.61929,4.558 -125.25396,2.2315 -126.83169,-2.446 -0.69244,-2.0528 1.37469,-4.412 4.5936,-5.2426 3.21891,-0.8306 6.56156,-3.3332 7.4281,-5.5614 2.13749,-5.4963 -5.25825,-26.1955 -19.12624,-53.5303 -15.05367,-29.672 -21.46675,-38.422 -26.70634,-36.4381 -3.43276,1.2998 -4.20816,9.3384 -4.20816,43.626 0,41.4567 0.0983,42.1089 7.18571,47.6097 3.95215,3.0675 7.18572,7.627 7.18572,10.1323 0,3.986 -5.54467,4.555 -44.38179,4.555 -27.28433,0 -45.0851,-1.1228 -46.2074,-2.9146 z"
       id="path3407"
       inkscape:connector-curvature="0" />
    <path
       style="fill:#ffffff"
       d="m -589.97648,1267.4651 c -0.0908,-2.4656 -19.96692,-71.0141 -20.84128,-71.8768 -1.15506,-1.1398 -16.49834,49.596 -16.49834,54.5553 0,1.6236 4.87519,4.3933 10.83376,6.1548 5.95857,1.7616 13.39578,5.1137 16.52714,7.4491 5.08689,3.7939 10.04957,5.6428 9.97872,3.7176 z"
       id="path3405"
       inkscape:connector-curvature="0" />
    <path
       style="fill:#ffffff"
       d="m -792.86077,1236.2211 c 16.45969,-9.2896 27.95982,-24.7581 29.69413,-39.9406 1.25429,-10.9803 0.42534,-13.7772 -5.94678,-20.0647 -7.97186,-7.866 -23.33331,-9.8566 -33.72307,-4.37 -5.02106,2.6515 -5.55962,6.223 -5.55962,36.8696 0,18.6635 0.97007,33.9127 2.15571,33.887 1.18565,-0.025 7.20647,-2.8973 13.37963,-6.3813 z"
       id="path3403"
       inkscape:connector-curvature="0" />
    <path
       style="fill:#000000"
       d="m -240.64813,1369.9515 c -33.45588,-4.808 -61.52972,-24.9871 -76.11063,-54.7073 -5.32769,-10.8594 -5.88303,-17.355 -5.88303,-68.8109 l 0,-56.8195 8.19502,-11.1627 c 10.87443,-14.8124 24.82029,-26.112 40.64625,-32.9336 18.80099,-8.1039 55.85686,-9.6923 85.69606,-3.6733 22.25114,4.4884 24.37251,4.4962 31.14797,0.1157 3.99883,-2.5853 7.64328,-4.2796 8.09874,-3.765 1.13456,1.2819 7.31365,61.4576 7.30384,71.1297 -0.006,4.2896 -1.3013,7.7993 -2.88216,7.7993 -1.58085,0 -2.87428,-1.379 -2.87428,-3.0645 0,-1.6855 -4.77592,-10.1642 -10.61313,-18.8416 -14.41118,-21.4231 -35.7299,-31.1796 -64.61633,-29.5718 -17.07573,0.9505 -35.50583,25.8023 -42.6515,57.513 -5.03127,22.3274 -2.3675,59.301 5.79726,80.4666 8.20476,21.2694 29.55668,43.7989 41.97164,44.2865 14.68163,0.5767 19.68924,-0.6563 25.56063,-6.2934 5.13152,-4.9267 5.84891,-9.9526 6.68334,-46.8222 0.81481,-36.0021 0.29651,-41.9989 -4.03834,-46.7252 -2.7352,-2.9822 -6.71278,-5.4223 -8.83906,-5.4223 -2.12625,0 -3.86594,-1.9143 -3.86594,-4.2541 0,-3.6024 6.97281,-4.2542 45.50951,-4.2542 25.03026,0 46.30558,0.7854 47.27853,1.7455 0.97294,0.96 -2.69177,5.8967 -8.1438,10.9703 l -9.91281,9.2248 0,48.7237 0,48.7236 7.44641,6.8095 c 4.09554,3.7452 6.60606,8.1512 5.57896,9.791 -2.26916,3.6228 -101.00341,3.4842 -126.48315,-0.1775 z"
       id="path3401"
       inkscape:connector-curvature="0" />
    <path
       style="fill:#000000"
       d="m -1251.989,1107.4657 c -1.0568,-1.0427 -1.9214,-5.5119 -1.9214,-9.9316 l 0,-8.0356 780.55072,0 780.55073,0 -0.9007,9.2174 -0.9007,9.2174 -777.72861,0.7142 c -427.75075,0.3928 -778.59324,-0.139 -779.65004,-1.1818 z"
       id="path3361"
       inkscape:connector-curvature="0" />
  </g>
</svg>
