<?xml version="1.0" encoding="UTF-8" standalone="no"?>
<!-- Created with Inkscape (http://www.inkscape.org/) -->

<svg
   xmlns:dc="http://purl.org/dc/elements/1.1/"
   xmlns:cc="http://creativecommons.org/ns#"
   xmlns:rdf="http://www.w3.org/1999/02/22-rdf-syntax-ns#"
   xmlns:svg="http://www.w3.org/2000/svg"
   xmlns="http://www.w3.org/2000/svg"
   xmlns:sodipodi="http://sodipodi.sourceforge.net/DTD/sodipodi-0.dtd"
   xmlns:inkscape="http://www.inkscape.org/namespaces/inkscape"
   width="1920"
   height="1080"
   viewBox="0 0 1920 1080"
   version="1.1"
   id="svg8"
   inkscape:version="0.92.2 5c3e80d, 2017-08-06"
   sodipodi:docname="eye.svg">
  <defs
     id="defs2" />
  <sodipodi:namedview
     id="base"
     pagecolor="#ffffff"
     bordercolor="#666666"
     borderopacity="1.0"
     inkscape:pageopacity="0.0"
     inkscape:pageshadow="2"
     inkscape:zoom="0.7"
     inkscape:cx="563.84387"
     inkscape:cy="727.02127"
     inkscape:document-units="px"
     inkscape:current-layer="layer1"
     showgrid="false"
     units="px"
     showguides="true"
     inkscape:guide-bbox="true"
     inkscape:window-width="1680"
     inkscape:window-height="944"
     inkscape:window-x="0"
     inkscape:window-y="1"
     inkscape:window-maximized="1" />
  <metadata
     id="metadata5">
    <rdf:RDF>
      <cc:Work
         rdf:about="">
        <dc:format>image/svg+xml</dc:format>
        <dc:type
           rdf:resource="http://purl.org/dc/dcmitype/StillImage" />
        <dc:title></dc:title>
      </cc:Work>
    </rdf:RDF>
  </metadata>
  <g
     inkscape:label="Layer 1"
     inkscape:groupmode="layer"
     id="layer1"
     transform="translate(0,-11.249989)">
    <rect
       style="opacity:1;fill:#a55728;fill-opacity:1;stroke:none;stroke-width:0;stroke-miterlimit:4;stroke-dasharray:none;stroke-opacity:1"
       id="rect1010"
       width="1939.5271"
       height="1090.984"
       x="-0.25035259"
       y="1.0666678" />
    <g
       id="g1039"
       transform="matrix(0.49890525,10.682862,-10.682862,0.49890525,3008.0162,-256.75957)">
      <path
         sodipodi:nodetypes="cccccc"
         inkscape:connector-curvature="0"
         id="path941"
         d="m 52.629823,198.3057 c 0,0 -1.414049,0.84569 -1.650285,2.31035 0,0 1.086684,9.6384 15.308036,9.44941 0,0 10.441592,1.13392 15.54427,-9.44941 0,0 1.039429,0.0692 -1.322919,-2.00967 -14.363098,-5.95313 -27.879102,-0.30068 -27.879102,-0.30068 z"
         style="fill:#ffffff;fill-opacity:0.42745098;stroke:#ffffff;stroke-width:0.26458332px;stroke-linecap:butt;stroke-linejoin:miter;stroke-opacity:1" />
      <path
         inkscape:connector-curvature="0"
         id="path943"
         d="m 45.168155,191.96985 c 0,0 20.363466,-21.96986 42.049851,0.0945 0,0 0.61421,2.22061 -0.425224,3.68526 0,0 -18.171332,-25.76947 -41.490598,0.22249 -0.835218,-1.5034 -0.134029,-4.00225 -0.134029,-4.00225 z"
         style="fill:none;stroke:#ffffff;stroke-width:0.63674957;stroke-linecap:butt;stroke-linejoin:miter;stroke-miterlimit:4;stroke-dasharray:none;stroke-opacity:0.69803922" />
      <path
         inkscape:connector-curvature="0"
         id="path945"
         d="m 47.247024,193.95423 c 0,0 17.197916,-8.40997 37.986607,0.0945"
         style="fill:none;stroke:#ffffff;stroke-width:0.26458332px;stroke-linecap:butt;stroke-linejoin:miter;stroke-opacity:0.69803922" />
      <path
         inkscape:connector-curvature="0"
         id="path947"
         d="M 86.792783,195.74961 C 63.216517,185.54425 45.302185,195.9721 45.302185,195.9721 l 2.417309,1.99812 12.473214,-1.70089 c 0,0 -0.04725,-1.53553 6.047619,-1.55915 0,0 6.283854,-0.0473 6.165736,1.46466 l 12.024368,1.74814 z"
         style="fill:none;stroke:#ffffff;stroke-width:0.26458332px;stroke-linecap:butt;stroke-linejoin:miter;stroke-opacity:0.69803922" />
      <path
         sodipodi:nodetypes="cccccccc"
         inkscape:connector-curvature="0"
         id="path955"
         d="m 44.968099,192.16351 c 0,0 -6.548104,3.87541 -16.102989,13.76438 0,0 -10.089426,5.14494 -14.766643,23.38609 0,0 0.467722,1.73725 2.672696,0.20045 0,0 -0.26727,-11.75986 11.292137,-21.11429 0,0 -8.686259,9.82215 -8.084903,23.58653 0,0 -2.539061,19.5775 19.109771,37.41774 0,0 -8.552625,10.3567 -12.093946,18.8425 l 12.695302,7.14946 c 0,0 10.089425,-17.3057 10.22306,-21.18111 0,0 34.754082,12.76835 56.109736,-16.90278 0,0 7.18155,-6.80639 6.23661,-25.32581 0,0 -0.37798,-10.01496 -3.2128,-16.06258 l 4.40978,5.77271 c 0,0 1.33635,0.4009 2.60588,-1.20272 0,0 -5.41221,-7.75081 -9.2208,-9.82215 0,0 -11.759857,-14.69983 -19.377038,-18.24115 l 0.03753,2.79912 c 0,0 22.962048,12.3759 22.773058,36.75677 0,0 -0.75594,15.78191 -8.40996,25.32581 0,0 -18.237349,24.75745 -52.066217,13.79614 0,0 -12.095238,-5.19718 -18.142857,-13.79614 0,0 -10.205357,-13.98793 -9.354911,-25.32581 0,0 -2.173363,-20.88177 22.395089,-36.3788 z"
         style="fill:#ffffff;fill-opacity:0.69803922;stroke:none;stroke-width:0.79374999;stroke-linecap:butt;stroke-linejoin:miter;stroke-miterlimit:4;stroke-dasharray:none;stroke-opacity:1" />
      <path
         sodipodi:nodetypes="cccc"
         inkscape:connector-curvature="0"
         id="path967"
         d="m 31.270535,208.27008 c 0,0 -8.151721,10.37689 -7.41673,24.09598 0,0 0.400904,24.75288 20.245667,33.16741 0,0 -11.292138,14.4949 -15.234363,23.78251 l 9.087163,5.14494 c 0,0 12.093946,-21.11429 11.225321,-24.78924 0,0 1.737251,-1.15624 4.409947,0.8018 0,0 17.105249,6.7575 36.749559,-4.94001 0,0 18.898021,-11.24479 18.331051,-33.16741 0,0 1.11281,-7.49912 -5.30166,-20.97768 0,0 4.81085,12.00263 3.74177,20.97768 0,0 2.20498,19.27386 -19.644308,33.16741 0,0 -20.379301,10.36116 -36.215021,0 0,0 -2.80633,0.39643 -4.543582,-2.47671 0,0 -8.886711,1.46998 -18.909318,-18.17433 0,0 -2.472244,-7.52659 -2.672696,-12.51637 0,0 -1.336346,-14.40388 6.1472,-24.09598 z"
         style="fill:#c7c7c7;fill-opacity:1;stroke:none;stroke-width:0.26458332px;stroke-linecap:butt;stroke-linejoin:miter;stroke-opacity:1" />
      <path
         inkscape:connector-curvature="0"
         id="path973"
         d="m 66.145832,191.59188 0.09449,1.70089"
         style="fill:none;stroke:#ffffff;stroke-width:0.26458332px;stroke-linecap:butt;stroke-linejoin:miter;stroke-opacity:1" />
      <path
         inkscape:connector-curvature="0"
         id="path975"
         d="m 73.091145,192.06435 c 0,0 -2.173364,0.8032 -2.929316,1.98437"
         style="fill:none;stroke:#ffffff;stroke-width:0.26458332px;stroke-linecap:butt;stroke-linejoin:miter;stroke-opacity:0.69803922" />
      <path
         inkscape:connector-curvature="0"
         id="path977"
         d="m 58.775298,191.87536 3.260045,2.45684"
         style="fill:none;stroke:#ffffff;stroke-width:0.26458332px;stroke-linecap:butt;stroke-linejoin:miter;stroke-opacity:0.69803922" />
      <path
         inkscape:connector-curvature="0"
         id="path979"
         d="m 63.02753,191.49738 0.944938,1.70089"
         style="fill:none;stroke:#ffffff;stroke-width:0.26458332px;stroke-linecap:butt;stroke-linejoin:miter;stroke-opacity:0.69803922" />
      <path
         inkscape:connector-curvature="0"
         id="path981"
         d="m 52.585937,193.57625 c 0,0 6.52009,0 7.465031,0.99219"
         style="fill:none;stroke:#ffffff;stroke-width:0.26458332px;stroke-linecap:butt;stroke-linejoin:miter;stroke-opacity:0.69803922" />
      <path
         inkscape:connector-curvature="0"
         id="path983"
         d="m 69.216888,191.73362 -0.566962,1.22842"
         style="fill:none;stroke:#ffffff;stroke-width:0.26458332px;stroke-linecap:butt;stroke-linejoin:miter;stroke-opacity:0.69803922" />
      <path
         inkscape:connector-curvature="0"
         id="path985"
         d="m 71.626488,194.61568 c 0,0 0.472469,-0.85045 7.039806,-0.7087"
         style="fill:none;stroke:#ffffff;stroke-width:0.26458332px;stroke-linecap:butt;stroke-linejoin:miter;stroke-opacity:0.69803922" />
      <path
         inkscape:connector-curvature="0"
         id="path987"
         d="m 47.483259,196.45832 c 0,0 9.921875,-1.65365 11.811754,-1.18118"
         style="fill:none;stroke:#ffffff;stroke-width:0.26458332px;stroke-linecap:butt;stroke-linejoin:miter;stroke-opacity:0.69803922" />
      <path
         inkscape:connector-curvature="0"
         id="path989"
         d="m 72.760416,195.2299 c 0,0 2.645833,-0.8032 10.583333,0.94494"
         style="fill:none;stroke:#ffffff;stroke-width:0.26458332px;stroke-linecap:butt;stroke-linejoin:miter;stroke-opacity:0.69803922" />
      <path
         sodipodi:nodetypes="cccc"
         inkscape:connector-curvature="0"
         id="path953"
         d="m 72.406063,196.47604 c -4.133247,-0.66588 -12.242885,0.0295 -12.242885,0.0295 0,0 0.138,-1.73415 6.077149,-1.80096 0,0 6.323478,0.01 6.165736,1.77145 z"
         style="fill:#000000;fill-opacity:1;stroke:none;stroke-width:0.26458332px;stroke-linecap:butt;stroke-linejoin:miter;stroke-opacity:1" />
    </g>
    <path
       style="fill:none;stroke:#000000;stroke-width:0;stroke-linecap:butt;stroke-linejoin:miter;stroke-miterlimit:4;stroke-dasharray:none;stroke-opacity:1"
       d="M 657.15923,544.39398 H 573.99452"
       id="path1112"
       inkscape:connector-curvature="0" />
  </g>
</svg>
